<!-- Generated by IcoMoon.io -->
<svg version="1.1" xmlns="http://www.w3.org/2000/svg" width="20" height="20" viewBox="0 0 20 20">
<path d="M17.5 3h-8.5v-0.5c0-0.827-0.673-1.5-1.5-1.5h-2c-0.827 0-1.5 0.673-1.5 1.5v0.5h-2.5c-0.827 0-1.5 0.673-1.5 1.5v2c0 0.827 0.673 1.5 1.5 1.5h2.5v10.5c0 0.827 0.673 1.5 1.5 1.5h2c0.827 0 1.5-0.673 1.5-1.5v-10.5h8.5c0.827 0 1.5-0.673 1.5-1.5v-2c0-0.827-0.673-1.5-1.5-1.5zM5 2.5c0-0.276 0.224-0.5 0.5-0.5h2c0.276 0 0.5 0.224 0.5 0.5v0.5h-3v-0.5zM8 10h-0.5c-0.276 0-0.5 0.224-0.5 0.5s0.224 0.5 0.5 0.5h0.5v2h-0.5c-0.276 0-0.5 0.224-0.5 0.5s0.224 0.5 0.5 0.5h0.5v2h-0.5c-0.276 0-0.5 0.224-0.5 0.5s0.224 0.5 0.5 0.5h0.5v1.5c0 0.276-0.224 0.5-0.5 0.5h-2c-0.276 0-0.5-0.224-0.5-0.5v-10.5h3v2zM18 6.5c0 0.276-0.224 0.5-0.5 0.5h-1.5v-0.5c0-0.276-0.224-0.5-0.5-0.5s-0.5 0.224-0.5 0.5v0.5h-2v-0.5c0-0.276-0.224-0.5-0.5-0.5s-0.5 0.224-0.5 0.5v0.5h-2v-0.5c0-0.276-0.224-0.5-0.5-0.5s-0.5 0.224-0.5 0.5v0.5h-2v-0.5c0-0.276-0.224-0.5-0.5-0.5s-0.5 0.224-0.5 0.5v0.5h-2v-0.5c0-0.276-0.224-0.5-0.5-0.5s-0.5 0.224-0.5 0.5v0.5h-1.5c-0.276 0-0.5-0.224-0.5-0.5v-2c0-0.276 0.224-0.5 0.5-0.5h16c0.276 0 0.5 0.224 0.5 0.5v2z"></path>
</svg>
