<!-- Generated by IcoMoon.io -->
<svg version="1.1" xmlns="http://www.w3.org/2000/svg" width="20" height="20" viewBox="0 0 20 20">
<path d="M7.5 10h-6c-0.827 0-1.5-0.673-1.5-1.5v-6c0-0.827 0.673-1.5 1.5-1.5h6c0.827 0 1.5 0.673 1.5 1.5v6c0 0.827-0.673 1.5-1.5 1.5zM1.5 2c-0.276 0-0.5 0.224-0.5 0.5v6c0 0.276 0.224 0.5 0.5 0.5h6c0.276 0 0.5-0.224 0.5-0.5v-6c0-0.276-0.224-0.5-0.5-0.5h-6z"></path>
<path d="M7.5 20h-6c-0.827 0-1.5-0.673-1.5-1.5v-6c0-0.827 0.673-1.5 1.5-1.5h6c0.827 0 1.5 0.673 1.5 1.5v6c0 0.827-0.673 1.5-1.5 1.5zM1.5 12c-0.276 0-0.5 0.224-0.5 0.5v6c0 0.276 0.224 0.5 0.5 0.5h6c0.276 0 0.5-0.224 0.5-0.5v-6c0-0.276-0.224-0.5-0.5-0.5h-6z"></path>
<path d="M6.5 6h-4c-0.276 0-0.5-0.224-0.5-0.5s0.224-0.5 0.5-0.5h4c0.276 0 0.5 0.224 0.5 0.5s-0.224 0.5-0.5 0.5z"></path>
<path d="M6.5 15h-1.5v-1.5c0-0.276-0.224-0.5-0.5-0.5s-0.5 0.224-0.5 0.5v1.5h-1.5c-0.276 0-0.5 0.224-0.5 0.5s0.224 0.5 0.5 0.5h1.5v1.5c0 0.276 0.224 0.5 0.5 0.5s0.5-0.224 0.5-0.5v-1.5h1.5c0.276 0 0.5-0.224 0.5-0.5s-0.224-0.5-0.5-0.5z"></path>
<path d="M17.5 20h-6c-0.827 0-1.5-0.673-1.5-1.5v-16c0-0.827 0.673-1.5 1.5-1.5h6c0.827 0 1.5 0.673 1.5 1.5v16c0 0.827-0.673 1.5-1.5 1.5zM11.5 2c-0.276 0-0.5 0.224-0.5 0.5v16c0 0.276 0.224 0.5 0.5 0.5h6c0.276 0 0.5-0.224 0.5-0.5v-16c0-0.276-0.224-0.5-0.5-0.5h-6z"></path>
<path d="M16.5 10h-4c-0.276 0-0.5-0.224-0.5-0.5s0.224-0.5 0.5-0.5h4c0.276 0 0.5 0.224 0.5 0.5s-0.224 0.5-0.5 0.5z"></path>
<path d="M16.5 12h-4c-0.276 0-0.5-0.224-0.5-0.5s0.224-0.5 0.5-0.5h4c0.276 0 0.5 0.224 0.5 0.5s-0.224 0.5-0.5 0.5z"></path>
</svg>
