<!-- Generated by IcoMoon.io -->
<svg version="1.1" xmlns="http://www.w3.org/2000/svg" width="20" height="20" viewBox="0 0 20 20">
<path d="M13.5 20h-8c-0.827 0-1.5-0.673-1.5-1.5v-17c0-0.827 0.673-1.5 1.5-1.5h8c0.827 0 1.5 0.673 1.5 1.5v17c0 0.827-0.673 1.5-1.5 1.5zM5.5 1c-0.276 0-0.5 0.224-0.5 0.5v17c0 0.276 0.224 0.5 0.5 0.5h8c0.276 0 0.5-0.224 0.5-0.5v-17c0-0.276-0.224-0.5-0.5-0.5h-8z"></path>
<path d="M10.5 3h-2c-0.276 0-0.5-0.224-0.5-0.5s0.224-0.5 0.5-0.5h2c0.276 0 0.5 0.224 0.5 0.5s-0.224 0.5-0.5 0.5z"></path>
<path d="M7 2.5c0 0.276-0.224 0.5-0.5 0.5s-0.5-0.224-0.5-0.5c0-0.276 0.224-0.5 0.5-0.5s0.5 0.224 0.5 0.5z"></path>
<path d="M9.5 18c-0.827 0-1.5-0.673-1.5-1.5s0.673-1.5 1.5-1.5c0.827 0 1.5 0.673 1.5 1.5s-0.673 1.5-1.5 1.5zM9.5 16c-0.276 0-0.5 0.224-0.5 0.5s0.224 0.5 0.5 0.5 0.5-0.224 0.5-0.5-0.224-0.5-0.5-0.5z"></path>
</svg>
