<!-- Generated by IcoMoon.io -->
<svg version="1.1" xmlns="http://www.w3.org/2000/svg" width="20" height="20" viewBox="0 0 20 20">
<path d="M12.5 9.5c0-0.128 0.049-0.256 0.146-0.354l6-6c0.195-0.195 0.512-0.195 0.707 0s0.195 0.512 0 0.707l-5.646 5.646 5.646 5.646c0.195 0.195 0.195 0.512 0 0.707s-0.512 0.195-0.707 0l-6-6c-0.098-0.098-0.146-0.226-0.146-0.354z"></path>
<path d="M0.5 15.5c0-0.128 0.049-0.256 0.146-0.354l5.646-5.646-5.646-5.646c-0.195-0.195-0.195-0.512 0-0.707s0.512-0.195 0.707 0l6 6c0.195 0.195 0.195 0.512 0 0.707l-6 6c-0.195 0.195-0.512 0.195-0.707 0-0.098-0.098-0.146-0.226-0.146-0.354z"></path>
</svg>
